<?xml version="1.0" encoding="UTF-8"?>
<svg version="1.1" xmlns="http://www.w3.org/2000/svg" width="512" height="512">
<path d="M0 0 C0.92039062 -0.01611328 1.84078125 -0.03222656 2.7890625 -0.04882812 C16.67670418 -0.05860815 27.58924151 5.40384495 37.5859375 14.8125 C57.18139038 35.10552564 62.57289762 63.81858334 62.171875 91.03515625 C62.11753372 93.79436953 62.06023075 96.55341757 62 99.3125 C61.96281712 101.07014819 61.92571239 102.82779803 61.88867188 104.58544922 C61.80474567 108.54119384 61.71993959 112.49691878 61.63476562 116.45263672 C61.06161119 142.7038316 61.06161119 142.7038316 60.76782227 168.95925903 C60.75618767 170.74028854 60.73933417 172.52129377 60.71655273 174.30221558 C60.46240451 195.1166051 61.98425576 220.79478773 76.5 237.125 C78.9390706 239.32642332 78.9390706 239.32642332 81.5 241.125 C86.14598284 245.19023499 89.63091692 250.74293933 90.2734375 256.95703125 C90.68493562 269.79260734 86.69380409 281.70450208 78 291.3125 C76.65754318 292.35578073 75.28225659 293.35842773 73.875 294.3125 C65.21555463 300.38079859 63.33912897 311.67497202 61.47634888 321.50387573 C57.53289064 344.75509564 57.2009078 368.53442003 56.42181396 392.04711914 C53.92685713 467.054788 53.92685713 467.054788 30.76953125 489.83203125 C26.77148695 493.41279025 22.83311951 495.99898475 18 498.3125 C17.42652832 498.58900391 16.85305664 498.86550781 16.26220703 499.15039062 C-7.40644483 510.4170862 -35.68023098 518.02034935 -61.51953125 509.69921875 C-82.80034599 501.22033072 -97.24192656 488.01360148 -109.69140625 468.8359375 C-118.00522079 456.05016945 -127.54459866 446.3077332 -142.83984375 442.70727539 C-146.56110735 442.02720269 -150.22403487 441.92984084 -154 441.9375 C-155.28825684 441.93991699 -155.28825684 441.93991699 -156.60253906 441.94238281 C-166.5273011 442.12373819 -176.14098991 443.90958943 -185.87402344 445.73046875 C-191.19959212 446.72204605 -196.53603003 447.64634539 -201.875 448.5625 C-203.32664551 448.82498535 -203.32664551 448.82498535 -204.80761719 449.09277344 C-215.4356555 450.92876059 -224.34819996 450.41625827 -234.8125 447.8125 C-235.89982422 447.54477783 -236.98714844 447.27705566 -238.10742188 447.0012207 C-267.99078136 439.35831192 -298.61357493 425.3963455 -315.0234375 397.96875 C-326.51149736 377.55039052 -326.45692045 352.91340864 -320.68896484 330.75488281 C-315.87749456 313.69820361 -309.20614183 297.91108126 -296.73046875 285.1484375 C-294.11346528 282.43034806 -291.73557354 279.62894766 -289.375 276.6875 C-286.51118217 273.13065864 -283.57653672 269.68710948 -280.5 266.3125 C-277.38541332 262.89510628 -274.4081338 259.4072765 -271.5 255.8125 C-267.88967558 251.34973787 -264.11572071 247.08530467 -260.25 242.84375 C-257.92137947 240.2240519 -255.70437053 237.5373469 -253.5 234.8125 C-249.88967558 230.34973787 -246.11572071 226.08530467 -242.25 221.84375 C-239.92137947 219.2240519 -237.70437053 216.5373469 -235.5 213.8125 C-231.88967558 209.34973787 -228.11572071 205.08530467 -224.25 200.84375 C-221.92137947 198.2240519 -219.70437053 195.5373469 -217.5 192.8125 C-213.88967558 188.34973787 -210.11572071 184.08530467 -206.25 179.84375 C-203.92137947 177.2240519 -201.70437053 174.5373469 -199.5 171.8125 C-195.88967558 167.34973787 -192.11572071 163.08530467 -188.25 158.84375 C-185.92137947 156.2240519 -183.70437053 153.5373469 -181.5 150.8125 C-177.88967558 146.34973787 -174.11572071 142.08530467 -170.25 137.84375 C-167.92137947 135.2240519 -165.70437053 132.5373469 -163.5 129.8125 C-159.88967558 125.34973787 -156.11572071 121.08530467 -152.25 116.84375 C-149.92137947 114.2240519 -147.70437053 111.5373469 -145.5 108.8125 C-141.88967558 104.34973787 -138.11572071 100.08530467 -134.25 95.84375 C-131.92137947 93.2240519 -129.70437053 90.5373469 -127.5 87.8125 C-123.88967558 83.34973787 -120.11572071 79.08530467 -116.25 74.84375 C-113.92137947 72.2240519 -111.70437053 69.5373469 -109.5 66.8125 C-106.5918662 63.2177235 -103.61458668 59.72989372 -100.5 56.3125 C-95.13560675 50.42200163 -89.86086623 44.34836486 -85.25 37.84375 C-82.18789428 34.39888107 -78.66461393 32.11891557 -74.8125 29.625 C-74.01948486 29.10534668 -73.22646973 28.58569336 -72.40942383 28.05029297 C-50.39407734 13.74566181 -26.9910626 -0.09450652 0 0 Z M-57.37890625 108.60546875 C-59.6716215 111.11349987 -61.85189967 113.67972 -64 116.3125 C-64.69351563 117.15683594 -65.38703125 118.00117187 -66.1015625 118.87109375 C-67.56702171 120.66428293 -69.0277677 122.46133176 -70.484375 124.26171875 C-73.42925052 127.83306624 -76.45720087 131.3246164 -79.5 134.8125 C-83.99761026 139.9708966 -88.38995886 145.19407629 -92.69921875 150.51171875 C-96.38006413 154.9924762 -100.17513193 159.37409186 -103.95703125 163.76953125 C-108.21351925 168.71808716 -112.42167006 173.7072854 -116.63232422 178.69482422 C-118.02459417 180.34158979 -119.42005473 181.98560067 -120.81640625 183.62890625 C-125.04853633 188.61276248 -129.25737398 193.60809272 -133.375 198.6875 C-137.54156423 203.80983524 -141.86201281 208.78667378 -146.20043945 213.76293945 C-150.12489097 218.27465363 -153.93426783 222.86575555 -157.69921875 227.51171875 C-161.38006413 231.9924762 -165.17513193 236.37409186 -168.95703125 240.76953125 C-173.21351925 245.71808716 -177.42167006 250.7072854 -181.63232422 255.69482422 C-183.02459417 257.34158979 -184.42005473 258.98560067 -185.81640625 260.62890625 C-190.04853633 265.61276248 -194.25737398 270.60809272 -198.375 275.6875 C-202.54156423 280.80983524 -206.86201281 285.78667378 -211.20043945 290.76293945 C-215.12489097 295.27465363 -218.93426783 299.86575555 -222.69921875 304.51171875 C-225.38059006 307.77579894 -228.12066327 310.98497626 -230.875 314.1875 C-231.63453979 315.07078979 -231.63453979 315.07078979 -232.40942383 315.97192383 C-233.43342444 317.16260329 -234.4574316 318.35327712 -235.48144531 319.54394531 C-239.68581615 324.44048267 -243.85519212 329.36547124 -248 334.3125 C-248.76699219 335.22128906 -249.53398437 336.13007813 -250.32421875 337.06640625 C-256.48702441 344.52784378 -260.80070682 351.40636418 -261.5234375 361.27734375 C-260.50097528 365.25273789 -256.60021161 366.93268539 -253.30859375 369.015625 C-252.36113281 369.52609375 -251.41367188 370.0365625 -250.4375 370.5625 C-249.50808594 371.08328125 -248.57867187 371.6040625 -247.62109375 372.140625 C-242.27121318 373.87197794 -237.54442258 374.49814455 -232 373.3125 C-228.18895293 370.86934467 -225.40695086 367.76511784 -222.4375 364.375 C-220.79121859 362.61394833 -219.1415105 360.85609336 -217.48828125 359.1015625 C-216.71178223 358.26270508 -215.9352832 357.42384766 -215.13525391 356.55957031 C-211.11824607 352.33220465 -206.63855342 348.83695978 -202 345.3125 C-201.00226563 344.50941406 -200.00453125 343.70632813 -198.9765625 342.87890625 C-186.38030305 332.79226115 -172.54468493 325.20836374 -158 318.3125 C-157.30567871 317.97863281 -156.61135742 317.64476562 -155.89599609 317.30078125 C-132.52531329 306.13674884 -107.72557259 300.12663748 -82.3203125 295.6640625 C-81.03390869 295.43630127 -79.74750488 295.20854004 -78.42211914 294.97387695 C-75.28174917 294.41814961 -72.14104469 293.86439861 -69 293.3125 C-69.00222061 294.62619064 -69.00444122 295.93988129 -69.00672913 297.29338074 C-69.02719579 309.80778534 -69.04208362 322.32218644 -69.05181217 334.83660412 C-69.05698217 341.26697181 -69.06396977 347.69732576 -69.07543945 354.12768555 C-69.09796106 367.42032721 -69.09356121 380.71192433 -69.02123451 394.00442314 C-68.99521536 399.61726481 -69.01240914 405.22417803 -69.12155628 410.8360281 C-69.15786571 412.94837376 -69.17182706 415.05932232 -69.1749115 417.17195129 C-69.18041628 419.51235506 -69.22397121 421.85323027 -69.3193512 424.19169617 C-69.27440523 428.89883234 -69.01757205 431.29705483 -65.60549927 434.70199585 C-62.81478817 436.76822298 -60.00584737 438.57790676 -57 440.3125 C-56.29342758 440.75721146 -55.58685516 441.20192291 -54.85887146 441.66011047 C-47.56434576 446.14404447 -37.54752585 447.28628107 -29.3125 445.375 C-21.77012649 442.87575197 -14.18040068 438.40141148 -9 432.3125 C-8.41893307 429.86644497 -8.41893307 429.86644497 -8.5300293 427.16455078 C-8.52714401 426.11793274 -8.52425873 425.0713147 -8.52128601 423.99298096 C-8.54748772 422.26782257 -8.54748772 422.26782257 -8.57421875 420.5078125 C-8.57714432 419.28068542 -8.58006989 418.05355835 -8.58308411 416.78924561 C-8.5956763 413.38616288 -8.62650827 409.98414599 -8.66543579 406.58132172 C-8.70252494 402.97763357 -8.71673791 399.37384537 -8.734375 395.77001953 C-8.78384943 386.8542544 -8.87531228 377.93907984 -8.97124481 369.02371216 C-9.01122582 365.25406168 -9.04868139 361.48438733 -9.08624935 357.71471214 C-9.34393849 331.91336296 -9.65276192 306.11279145 -10 280.3125 C-9.34619354 280.25037323 -8.69238708 280.18824646 -8.01876831 280.12423706 C-1.33335355 279.475028 5.25282766 278.56121059 11.875 277.4375 C12.89335937 277.27636719 13.91171875 277.11523438 14.9609375 276.94921875 C16.43046875 276.69978516 16.43046875 276.69978516 17.9296875 276.4453125 C19.24815674 276.22705811 19.24815674 276.22705811 20.59326172 276.00439453 C23.32495562 275.21908103 24.95237409 274.27933765 27 272.3125 C27 271.3225 27 270.3325 27 269.3125 C21.46274955 265.79384587 16.7058715 265.92430908 10.375 266.0625 C9.45332031 266.06765625 8.53164063 266.0728125 7.58203125 266.078125 C2.5788763 266.13379293 -2.37584468 266.39441991 -7.36083984 266.82519531 C-8.42249359 266.91617493 -9.48414734 267.00715454 -10.57797241 267.10089111 C-11.37724152 267.17072205 -12.17651062 267.24055298 -13 267.3125 C-12.99446924 266.15127593 -12.99446924 266.15127593 -12.98882675 264.96659279 C-12.90037055 246.10297067 -12.83423929 227.23939012 -12.79275131 208.37560463 C-12.77215316 199.2530941 -12.74408526 190.13072227 -12.69824219 181.00830078 C-12.65829012 173.05433092 -12.63254723 165.10046155 -12.62364602 157.14639413 C-12.6184454 152.93732977 -12.6062798 148.72855281 -12.57707977 144.51958084 C-12.54977809 140.55181305 -12.54158451 136.58444903 -12.54756927 132.61659622 C-12.54647559 131.16624756 -12.53860973 129.71588435 -12.5231781 128.26561737 C-12.423265 118.38485471 -13.34086091 110.05198826 -19.25 101.875 C-31.08762095 90.84448957 -47.32471979 98.91448771 -57.37890625 108.60546875 Z " fill="#030104" transform="translate(373,-0.3125)"/>
<path d="M0 0 C0.66 0 1.32 0 2 0 C2 27.06 2 54.12 2 82 C-9.941875 82.99 -9.941875 82.99 -22.125 84 C-25.81840576 84.31324219 -25.81840576 84.31324219 -29.58642578 84.6328125 C-43.42437152 85.7678315 -57.11762288 86.25237499 -71 86 C-71.66992188 83.71801758 -71.66992188 83.71801758 -72 81 C-70.93945312 79.18237305 -70.93945312 79.18237305 -69.28125 77.51171875 C-68.68207764 76.89192139 -68.08290527 76.27212402 -67.46557617 75.63354492 C-66.49261597 74.67025269 -66.49261597 74.67025269 -65.5 73.6875 C-64.19324432 72.344495 -62.88724542 71.00075319 -61.58203125 69.65625 C-60.95506348 69.01945312 -60.3280957 68.38265625 -59.68212891 67.7265625 C-57.77818644 65.77232722 -55.96472996 63.75740029 -54.1875 61.6875 C-51.66295338 58.75597357 -49.09316018 55.87115391 -46.5 53 C-43.81016569 50.01937279 -41.13689636 47.02754767 -38.5 44 C-35.10746907 40.10487189 -31.64805799 36.27217237 -28.1875 32.4375 C-26.27445851 30.30582519 -24.38112388 28.1598089 -22.5 26 C-19.86310364 22.97245233 -17.18983431 19.98062721 -14.5 17 C-7.65691015 9.63849181 -7.65691015 9.63849181 -1.4296875 1.7734375 C-0.95789063 1.18820313 -0.48609375 0.60296875 0 0 Z " fill="#030104" transform="translate(307,185)"/>
</svg>
